<?xml version="1.0" encoding="utf-8"?>
<!-- Generator: Adobe Illustrator 25.0.0, SVG Export Plug-In . SVG Version: 6.00 Build 0)  -->
<svg version="1.1" id="Layer_1" xmlns="http://www.w3.org/2000/svg" xmlns:xlink="http://www.w3.org/1999/xlink" x="0px" y="0px"
	 viewBox="0 0 300 300" style="enable-background:new 0 0 300 300;" xml:space="preserve">
<style type="text/css">
	.st0{fill:#3FABFF;stroke:#1F7EFF;stroke-miterlimit:10;}
	.st1{fill:#00428A;stroke:#1F7EFF;stroke-miterlimit:10;}
	.st2{fill:#00428A;}
	.st3{fill:#FFFFFF;}
	.st4{font-family:'MSReferenceSansSerif';}
	.st5{font-size:24px;}
</style>
<path class="st0" d="M94.36,226.5h106.28c9.31,0,16.86-7.55,16.86-16.86V79.5c-38.24,0.34-30.08-2.71-34-29H94.36
	c-9.31,0-16.86,7.55-16.86,16.86v142.28C77.5,218.95,85.05,226.5,94.36,226.5z"/>
<polygon class="st1" points="217.5,79.5 183.5,50.5 185.87,71.22 187.23,74.43 189.89,76.87 192.19,77.47 195.9,78.7 "/>
<circle class="st2" cx="183.5" cy="128.5" r="4"/>
<circle class="st2" cx="110.5" cy="128.5" r="4"/>
<path class="st0" d="M130.5,153.5c1.61-2.01,8.72-10.39,18.82-9c8.45,1.17,13.94,8.48,15.68,11"/>
<path class="st1" d="M174.88,232.5h50.23c5.73,0,10.38-4.65,10.38-10.38v-10.23c0-5.73-4.65-10.38-10.38-10.38h-50.23
	c-5.73,0-10.38,4.65-10.38,10.38v10.23C164.5,227.85,169.15,232.5,174.88,232.5z"/>
<text transform="matrix(1 0 0 1 185.7451 224.957)" class="st3 st4 st5">PS</text>
</svg>
